# xmcd
#
# Track frame offsets:
#	150
#	17428
#	33659
#	48519
#	61300
#	77038
#	90820
#	105468
#	122838
#	136611
#	152135
#	167177
#
# Disc length: 2412 seconds
#
# Revision: 0
# Processed by: cddbd v1.5.2PL0 Copyright (c) Steve Scherf et al.
# Submitted via: EZCDAudioConverter 5.1.1.1
#
DISCID=8a096a0c
DTITLE=Melanie Payer - Einfach Leben
DYEAR=2015
DGENRE=Itävalta Iskelmä
TTITLE0=Ich Lebe Diesen Augenblick
TTITLE1=Vielleicht Vielleicht Auch Nicht
TTITLE2=Eigentlich Ganz Einfach
TTITLE3=Sags Mir Ins Gesicht
TTITLE4=Auf Der Suche Nach Dir
TTITLE5=Lieben Leben Lachen
TTITLE6=Immer Wenn Ich An Dich Denk
TTITLE7=P. S. Ich Liebe Dich
TTITLE8=Halt Die Scherben Nicht Fest
TTITLE9=Es Gibt Immer Einen Weg
TTITLE10=Du Tust Mir Gut
TTITLE11=Was Sich Liebt Das Neckt Sich
EXTD=
EXTT0=
EXTT1=
EXTT2=
EXTT3=
EXTT4=
EXTT5=
EXTT6=
EXTT7=
EXTT8=
EXTT9=
EXTT10=
EXTT11=
PLAYORDER=
